<svg width="44" height="85" xmlns="http://www.w3.org/2000/svg" xmlns:xlink="http://www.w3.org/1999/xlink" xmlns:svgjs="http://svgjs.com/svgjs" viewBox="0.916 0 42.168 85" fill="#0075f2"><svg xmlns="http://www.w3.org/2000/svg" width="44" height="85" viewBox="0.999 0 42.001 84.663"><path paint-order="stroke fill markers" fill-rule="evenodd" d="M8.206 84.663v-.003l.001-33.936c3.432 1.233 10.186 3.06 13.793 3.06 3.548 0 10.281-1.826 13.714-3.06V84.66L22 75.062l-13.793 9.6v.001zM22 42.555c-5.587 0-10.854-2.22-14.832-6.25A21.27 21.27 0 0 1 .999 21.276C1 15.617 3.19 10.28 7.168 6.25 11.146 2.22 16.413 0 22 0c5.586 0 10.853 2.22 14.831 6.25a21.264 21.264 0 0 1 6.17 15.027c0 5.66-2.192 10.997-6.17 15.027-3.978 4.031-9.245 6.25-14.831 6.25zm0-32.581c-6.513 0-11.812 5.369-11.812 11.968 0 6.6 5.3 11.968 11.812 11.968 6.513 0 11.812-5.369 11.812-11.968 0-6.6-5.3-11.968-11.812-11.968z"/></svg></svg>