<svg width="71" height="66" xmlns="http://www.w3.org/2000/svg" xmlns:xlink="http://www.w3.org/1999/xlink" xmlns:svgjs="http://svgjs.com/svgjs" viewBox="139 1819 71 66"><svg width="71" height="66" xmlns="http://www.w3.org/2000/svg" xmlns:xlink="http://www.w3.org/1999/xlink" xmlns:svgjs="http://svgjs.com/svgjs" viewBox="0.559 0 69.882 66" fill="#26ffe6" x="139" y="1819"><svg xmlns="http://www.w3.org/2000/svg" width="71" height="66" viewBox="1 0 69.873 65.991"><path paint-order="stroke fill markers" fill-rule="evenodd" d="M55.345 11.645C55.345 5.214 50.131 0 43.7 0H28.173C21.74 0 16.527 5.214 16.527 11.645h-3.882C6.214 11.645 1 16.86 1 23.291v31.054C1 60.777 6.214 65.99 12.645 65.99h46.582c6.432 0 11.646-5.213 11.646-11.645V23.29c0-6.432-5.214-11.646-11.646-11.646h-3.882zM43.7 7.764H28.173a3.882 3.882 0 0 0-3.882 3.881h23.29A3.882 3.882 0 0 0 43.7 7.764zM12.645 19.409h46.582a3.882 3.882 0 0 1 3.882 3.882v31.054a3.882 3.882 0 0 1-3.882 3.882H12.645a3.882 3.882 0 0 1-3.881-3.882V23.29a3.882 3.882 0 0 1 3.881-3.882z"/></svg></svg></svg>