<svg width="25" height="26" xmlns="http://www.w3.org/2000/svg" xmlns:xlink="http://www.w3.org/1999/xlink" xmlns:svgjs="http://svgjs.com/svgjs" viewBox="1007 6405 25 26"><svg width="11" height="12" xmlns="http://www.w3.org/2000/svg" xmlns:xlink="http://www.w3.org/1999/xlink" xmlns:svgjs="http://svgjs.com/svgjs" viewBox="0.369 0 10.262 12" fill="#828282" x="1013" y="6412"><svg xmlns="http://www.w3.org/2000/svg" xmlns:xlink="http://www.w3.org/1999/xlink" width="11" height="12" viewBox="0.942 0.746 9.23 10.793"><path paint-order="stroke fill markers" fill-rule="evenodd" d="M8.02 4.032l1.914-1.913a5.397 5.397 0 1 0 .238 7.822L8.4 8.17h-.284a2.698 2.698 0 1 1-.097-4.138l.001.001z"/></svg></svg><svg width="25" height="26" xmlns="http://www.w3.org/2000/svg" xmlns:xlink="http://www.w3.org/1999/xlink" xmlns:svgjs="http://svgjs.com/svgjs" viewBox="0 0.5 25 25" fill="#828282" x="1007" y="6405"><svg xmlns="http://www.w3.org/2000/svg" width="25" height="26" viewBox="0 1 24.285 24.285"><path paint-order="stroke fill markers" fill-rule="evenodd" d="M12.142 1c6.706 0 12.143 5.436 12.143 12.142 0 6.706-5.437 12.143-12.143 12.143S0 19.848 0 13.142 5.436 1 12.142 1zm0 2.698a9.444 9.444 0 0 1 9.444 9.444 9.444 9.444 0 1 1-18.888 0 9.444 9.444 0 0 1 9.444-9.444z"/></svg></svg></svg>