<svg width="135" height="125" xmlns="http://www.w3.org/2000/svg" xmlns:xlink="http://www.w3.org/1999/xlink" xmlns:svgjs="http://svgjs.com/svgjs" viewBox="0 0.094 135 124.811" fill="#0075f2"><svg xmlns="http://www.w3.org/2000/svg" width="135" height="125" viewBox="1 1 133.561 123.481"><path paint-order="stroke fill markers" fill-rule="evenodd" d="M126.371 60.504c-4.945-6.49-11.876-11.309-19.562-13.734.315-1.985.441-4 .441-6.017 0-10.615-4.095-20.601-11.56-28.098C88.256 5.126 78.333 1 67.78 1 57.229 1 47.306 5.126 39.872 12.655c-7.465 7.497-11.56 17.483-11.56 28.098 0 2.016.157 4.032.44 6.017-7.717 2.425-14.615 7.276-19.56 13.734C3.834 67.497 1 75.876 1 84.728c0 10.615 4.095 20.6 11.56 28.098 7.466 7.497 17.389 11.655 27.91 11.655 10.269 0 19.908-3.906 27.31-11.025 7.372 7.119 17.042 11.025 27.311 11.025 10.553 0 20.476-4.126 27.91-11.655 7.465-7.497 11.56-17.483 11.56-28.098 0-8.852-2.835-17.231-8.19-24.224zM67.781 9.032c17.356 0 31.5 14.238 31.5 31.721 0 1.48-.095 2.961-.315 4.442a40.051 40.051 0 0 0-3.906-.19c-10.27 0-19.908 3.907-27.31 11.026-7.372-7.12-17.043-11.025-27.312-11.025-1.291 0-2.614.063-3.906.189-.189-1.45-.315-2.961-.315-4.442.063-17.514 14.207-31.72 31.564-31.72zm0 63.442c-.567 0-1.166-.031-1.733-.063a30.056 30.056 0 0 1 1.733-3.497 30.056 30.056 0 0 1 1.732 3.497c-.567.063-1.165.063-1.732.063zM53.1 113.802c-4 1.764-8.221 2.646-12.631 2.646-17.357 0-31.5-14.238-31.5-31.72 0-7.025 2.236-13.703 6.489-19.279 3.874-5.071 9.26-8.914 15.277-10.899a39.934 39.934 0 0 0 9.828 14.995 39.22 39.22 0 0 0 15.498 9.166c-.315 1.984-.44 4-.44 6.017 0 8.127 2.425 15.939 6.993 22.585a32.088 32.088 0 0 1-9.514 6.49zm4.946-42.871c-8.694-2.836-15.75-9.388-19.31-17.861a32.031 32.031 0 0 1 1.733-.063c4.378 0 8.63.882 12.631 2.646 3.528 1.575 6.742 3.749 9.482 6.489-1.858 2.74-3.402 5.67-4.536 8.789zm9.734 29.61a31.824 31.824 0 0 1-4.19-15.813c0-1.481.095-2.961.315-4.442a40.54 40.54 0 0 0 7.812 0c.19 1.45.315 2.961.315 4.442-.063 5.575-1.512 11.025-4.252 15.813zM82.46 55.653c4-1.764 8.221-2.646 12.631-2.646.567 0 1.166.031 1.733.063-3.56 8.473-10.616 15.025-19.31 17.86a40.765 40.765 0 0 0-4.536-8.788c2.74-2.74 5.954-4.914 9.482-6.49zm12.631 60.795c-4.378 0-8.63-.882-12.631-2.646-3.528-1.575-6.741-3.748-9.482-6.489 4.568-6.646 6.993-14.427 6.993-22.585 0-2.016-.157-4.033-.44-6.017 5.764-1.796 11.087-4.946 15.497-9.166a40.448 40.448 0 0 0 9.828-14.995 31.743 31.743 0 0 1 15.278 10.9c4.253 5.575 6.49 12.253 6.49 19.278-.032 17.514-14.176 31.72-31.533 31.72z"/></svg></svg>