<svg width="31" height="30" xmlns="http://www.w3.org/2000/svg" xmlns:xlink="http://www.w3.org/1999/xlink" xmlns:svgjs="http://svgjs.com/svgjs" viewBox="0.495 0 30.01 30" fill="#26ffe6"><svg xmlns="http://www.w3.org/2000/svg" width="31" height="30" viewBox="1 0.756 29.216 29.206"><path paint-order="stroke fill markers" fill-rule="evenodd" d="M22.692 15.676c0 3.808-3.11 6.906-6.935 6.906-3.824 0-6.935-3.098-6.935-6.906 0-1.048.237-2.041.659-2.933H1v9.95C1 26.7 4.275 29.962 8.3 29.962h14.613c4.026 0 7.301-3.26 7.301-7.27v-9.95h-8.182c.422.892.66 1.886.66 2.934zm.222-14.92H8.301C4.276.756 1 4.016 1 8.025v2.026h10.744a6.915 6.915 0 0 1 4.013-1.28c1.495 0 2.88.476 4.013 1.28h10.445V8.025c0-4.008-3.275-7.269-7.301-7.269zm2.957 6.914a.811.811 0 0 1-.812.807h-2.507a.812.812 0 0 1-.811-.807V5.174c0-.444.365-.807.811-.807h2.507c.446 0 .812.363.812.807V7.67zm-7.234 8.006a2.876 2.876 0 0 0-2.88-2.866 2.876 2.876 0 0 0-2.879 2.866 2.876 2.876 0 0 0 2.88 2.867 2.876 2.876 0 0 0 2.879-2.867z"/></svg></svg>