<svg width="30" height="29" xmlns="http://www.w3.org/2000/svg" xmlns:xlink="http://www.w3.org/1999/xlink" xmlns:svgjs="http://svgjs.com/svgjs" viewBox="0.466 0 29.068 29" fill="#0075f2"><svg xmlns="http://www.w3.org/2000/svg" width="30" height="29" viewBox="0.522 0.126 28.903 28.836"><path paint-order="stroke fill markers" fill-rule="evenodd" d="M22.114 14.916c-.361-.474-1.038-.71-2.03-.71-1.219 0-2.076.36-2.573 1.082-.497.722-.745 1.737-.745 3.046v9.883c0 .226-.068.406-.203.542-.135.135-.316.203-.542.203h-5.144a.767.767 0 0 1-.507-.203.677.677 0 0 1-.238-.542V9.94c0-.18.08-.35.238-.508.158-.158.327-.237.507-.237h5.01c.18 0 .327.045.44.136.113.09.192.225.237.406v.338c.045.091.067.249.067.474 1.264-1.218 2.978-1.828 5.144-1.828 2.392 0 4.265.61 5.619 1.828 1.354 1.219 2.03 3.001 2.03 5.347v12.32c0 .226-.079.406-.237.542a.767.767 0 0 1-.507.203H23.4a.767.767 0 0 1-.508-.203.677.677 0 0 1-.237-.542v-11.1c0-.993-.18-1.726-.542-2.2l.001-.001zm-15.636-8.8c-.677.7-1.5 1.05-2.47 1.05-.97 0-1.793-.35-2.471-1.05A3.473 3.473 0 0 1 .522 3.613c0-.97.339-1.793 1.015-2.47C2.213.464 3.037.126 4.008.126c.97.001 1.794.34 2.47 1.016.676.676 1.014 1.5 1.015 2.47a3.465 3.465 0 0 1-1.015 2.505zm.88 3.825v18.276a.677.677 0 0 1-.237.542.767.767 0 0 1-.508.203H1.47c-.226 0-.407-.068-.542-.203-.136-.136-.203-.316-.203-.542V9.94c0-.18.067-.35.203-.508a.676.676 0 0 1 .542-.237h5.144c.18 0 .35.079.507.237.159.158.238.328.238.508h-.001z"/></svg></svg>