<svg width="23" height="32" xmlns="http://www.w3.org/2000/svg" xmlns:xlink="http://www.w3.org/1999/xlink" xmlns:svgjs="http://svgjs.com/svgjs" viewBox="879 5979 23 32"><svg width="5" height="5" xmlns="http://www.w3.org/2000/svg" xmlns:xlink="http://www.w3.org/1999/xlink" xmlns:svgjs="http://svgjs.com/svgjs" fill="#828282" x="888" y="5988"><svg xmlns="http://www.w3.org/2000/svg" xmlns:xlink="http://www.w3.org/1999/xlink" width="5" height="5" viewBox="0 0.256 4.5 4.5"><path paint-order="stroke fill markers" fill-rule="evenodd" d="M4.5 2.506a2.25 2.25 0 1 1-4.5 0 2.25 2.25 0 0 1 4.5 0z"/></svg></svg><svg width="23" height="32" xmlns="http://www.w3.org/2000/svg" xmlns:xlink="http://www.w3.org/1999/xlink" xmlns:svgjs="http://svgjs.com/svgjs" viewBox="0.071 0 22.858 32" fill="#828282" x="879" y="5979"><svg xmlns="http://www.w3.org/2000/svg" width="23" height="32" viewBox="0 0.256 22.5 31.499"><path paint-order="stroke fill markers" fill-rule="evenodd" d="M11.25.256C5.047.256 0 5.083 0 11.014c0 2.824 1.287 6.581 3.826 11.164 2.039 3.68 4.398 7.008 5.625 8.664a2.232 2.232 0 0 0 3.601 0c1.225-1.656 3.586-4.984 5.625-8.664 2.536-4.582 3.823-8.338 3.823-11.164C22.5 5.083 17.453.256 11.25.256zm0 15.75a4.5 4.5 0 1 1 0-9 4.5 4.5 0 0 1 0 9z"/></svg></svg></svg>