<svg width="29" height="22" xmlns="http://www.w3.org/2000/svg" xmlns:xlink="http://www.w3.org/1999/xlink" xmlns:svgjs="http://svgjs.com/svgjs" viewBox="875 5919 29 22"><svg width="29" height="12" xmlns="http://www.w3.org/2000/svg" xmlns:xlink="http://www.w3.org/1999/xlink" xmlns:svgjs="http://svgjs.com/svgjs" viewBox="0 0.353 29 11.295" fill="#828282" x="875" y="5919"><svg xmlns="http://www.w3.org/2000/svg" xmlns:xlink="http://www.w3.org/1999/xlink" width="29" height="12" viewBox="1 0.525 27.72 10.796"><path paint-order="stroke fill markers" fill-rule="evenodd" d="M27.8.525H1.92a.92.92 0 0 0-.92.92v1.852c0 .085.093.184.168.223l13.603 7.77a.231.231 0 0 0 .23-.001l13.193-7.762a6.92 6.92 0 0 0 .345-.2c.089-.062.18-.116.18-.225V1.445a.921.921 0 0 0-.92-.92z"/></svg></svg><svg width="9" height="13" xmlns="http://www.w3.org/2000/svg" xmlns:xlink="http://www.w3.org/1999/xlink" xmlns:svgjs="http://svgjs.com/svgjs" viewBox="0.506 0 7.987 13" fill="#828282" x="895" y="5925"><svg xmlns="http://www.w3.org/2000/svg" xmlns:xlink="http://www.w3.org/1999/xlink" width="9" height="13" viewBox="0.794 0.059 7.926 12.9"><path paint-order="stroke fill markers" fill-rule="evenodd" d="M8.605.09a.232.232 0 0 0-.232 0L.908 4.483a.23.23 0 0 0-.052.355l7.466 8.048a.23.23 0 0 0 .398-.157V.29a.23.23 0 0 0-.115-.2z"/></svg></svg><svg width="27" height="11" xmlns="http://www.w3.org/2000/svg" xmlns:xlink="http://www.w3.org/1999/xlink" xmlns:svgjs="http://svgjs.com/svgjs" viewBox="0 0.337 27 10.327" fill="#828282" x="876" y="5930"><svg xmlns="http://www.w3.org/2000/svg" xmlns:xlink="http://www.w3.org/1999/xlink" width="27" height="11" viewBox="0.347 0.884 26.418 10.104"><path paint-order="stroke fill markers" fill-rule="evenodd" d="M17.756.957a.23.23 0 0 0-.285-.042l-2.992 1.762c-.357.206-.796.209-1.155.007L10.69 1.18a.23.23 0 0 0-.27.031L.42 10.485a.23.23 0 0 0 .04.367.894.894 0 0 0 .459.135h25.615a.229.229 0 0 0 .21-.138.23.23 0 0 0-.041-.249L17.756.957z"/></svg></svg><svg width="10" height="13" xmlns="http://www.w3.org/2000/svg" xmlns:xlink="http://www.w3.org/1999/xlink" xmlns:svgjs="http://svgjs.com/svgjs" viewBox="0.582 0 8.836 13" fill="#828282" x="875" y="5925"><svg xmlns="http://www.w3.org/2000/svg" width="10" height="13" viewBox="1 0.24 8.294 12.203"><path paint-order="stroke fill markers" fill-rule="evenodd" d="M9.22 5.112a.23.23 0 0 0-.041-.368L1.343.27A.23.23 0 0 0 1 .47v11.743a.23.23 0 0 0 .386.168L9.22 5.112z"/></svg></svg></svg>