<svg width="28" height="29" xmlns="http://www.w3.org/2000/svg" xmlns:xlink="http://www.w3.org/1999/xlink" xmlns:svgjs="http://svgjs.com/svgjs" viewBox="0 0.499 28 28.002" fill="#828282"><svg xmlns="http://www.w3.org/2000/svg" width="28" height="29" viewBox="0 0.256 27.998 28"><path paint-order="stroke fill markers" fill-rule="evenodd" d="M27.611 23.539l-3.948 3.916c-.583.597-1.355.8-2.107.801-3.326-.1-6.471-1.734-9.053-3.411-4.238-3.083-8.127-6.906-10.566-11.526C1 11.38-.098 8.909.007 6.747c.01-.813.229-1.611.801-2.135L4.756.666c.82-.697 1.612-.457 2.137.356l3.176 6.023c.335.712.142 1.477-.356 1.987l-1.455 1.454a.717.717 0 0 0-.148.415c.558 2.16 2.247 4.149 3.74 5.519 1.492 1.37 3.096 3.224 5.179 3.664.257.071.572.097.756-.074l1.692-1.72c.583-.442 1.426-.658 2.048-.297h.03l5.728 3.382c.84.527.929 1.546.326 2.165l.002-.001z"/></svg></svg>