<svg width="30" height="25" xmlns="http://www.w3.org/2000/svg" xmlns:xlink="http://www.w3.org/1999/xlink" xmlns:svgjs="http://svgjs.com/svgjs" viewBox="0 0.318 30 24.365" fill="#0075f2"><svg xmlns="http://www.w3.org/2000/svg" width="30" height="25" viewBox="0.687 0.975 28.804 23.393"><path paint-order="stroke fill markers" fill-rule="evenodd" d="M29.49 3.753a12.351 12.351 0 0 1-2.96 3.052 16.77 16.77 0 0 1-.677 5.51 17.144 17.144 0 0 1-2.11 4.541 17.851 17.851 0 0 1-3.372 3.848c-1.305 1.116-2.877 2.005-4.716 2.668-1.839.664-3.807.996-5.903.996-3.302 0-6.324-.883-9.065-2.65.426.05.901.074 1.425.074 2.742 0 5.185-.841 7.329-2.522a5.758 5.758 0 0 1-3.436-1.179 5.765 5.765 0 0 1-2.083-2.916c.402.06.774.09 1.115.09a6.12 6.12 0 0 0 1.553-.2 5.807 5.807 0 0 1-3.39-2.038c-.896-1.079-1.343-2.33-1.343-3.755V9.2a5.854 5.854 0 0 0 2.669.749 5.892 5.892 0 0 1-1.919-2.101 5.76 5.76 0 0 1-.713-2.815c0-1.072.268-2.065.804-2.978A16.718 16.718 0 0 0 8.08 6.412a16.453 16.453 0 0 0 6.79 1.818 6.555 6.555 0 0 1-.146-1.352c0-1.633.575-3.025 1.726-4.176C17.602 1.55 18.994.975 20.626.975c1.706 0 3.144.621 4.313 1.864a11.558 11.558 0 0 0 3.747-1.425c-.451 1.4-1.316 2.485-2.595 3.252a11.765 11.765 0 0 0 3.399-.913z"/></svg></svg>