<svg width="59" height="81" xmlns="http://www.w3.org/2000/svg" xmlns:xlink="http://www.w3.org/1999/xlink" xmlns:svgjs="http://svgjs.com/svgjs" viewBox="140 25 59 81"><svg width="59" height="34" xmlns="http://www.w3.org/2000/svg" xmlns:xlink="http://www.w3.org/1999/xlink" xmlns:svgjs="http://svgjs.com/svgjs" viewBox="140 46 59 34" x="140" y="46"><svg width="49" height="34" xmlns="http://www.w3.org/2000/svg" xmlns:xlink="http://www.w3.org/1999/xlink" xmlns:svgjs="http://svgjs.com/svgjs" viewBox="140 46 49 34" x="140" y="46"><svg width="49" height="34" xmlns="http://www.w3.org/2000/svg" xmlns:xlink="http://www.w3.org/1999/xlink" xmlns:svgjs="http://svgjs.com/svgjs" viewBox="0 0.536 49 32.928" fill="#dd2127" x="140" y="46"><svg xmlns="http://www.w3.org/2000/svg" xmlns:xlink="http://www.w3.org/1999/xlink" width="49" height="34" viewBox="0.146 0.861 48.17 32.371"><path paint-order="stroke fill markers" fill-rule="evenodd" d="M29.495 21.366l-8.553-4.93-10.27-5.924-6.937-4.018-.515-.292A6.145 6.145 0 0 1 .146.862v11.866c0 1.356.446 2.661 1.236 3.709A6.141 6.141 0 0 0 3.22 18.05l7.47 4.31 18.822 10.871 18.804-10.87-10.27-5.925-8.551 4.929z"/></svg></svg><svg width="49" height="34" xmlns="http://www.w3.org/2000/svg" xmlns:xlink="http://www.w3.org/1999/xlink" xmlns:svgjs="http://svgjs.com/svgjs" viewBox="140 46 49 34" x="140" y="46"><svg width="49" height="34" xmlns="http://www.w3.org/2000/svg" xmlns:xlink="http://www.w3.org/1999/xlink" xmlns:svgjs="http://svgjs.com/svgjs" viewBox="0.226 0 48.547 34" fill="#d71c4f" x="140" y="46"><svg xmlns="http://www.w3.org/2000/svg" xmlns:xlink="http://www.w3.org/1999/xlink" width="49" height="34" viewBox="0.099 0.158 48.255 33.796"><path paint-order="stroke fill markers" fill-rule="evenodd" d="M29.495 20.627c-3.418-1.975-6.852-3.95-10.27-5.925A4528.04 4528.04 0 0 1 6.981 7.627a308.644 308.644 0 0 1-3.229-1.872C1.657 4.553.18 2.733.13.21c0-.258-.017.549-.017.635V11.61c0 .996-.07 2.01.12 2.988.67 3.486 4.104 4.843 6.852 6.423 1.39.807 2.799 1.614 4.19 2.421 4.826 2.783 9.634 5.564 14.46 8.347.927.532 1.871 1.082 2.799 1.614.223.12.721.55.979.55.377-.018 1.082-.636 1.408-.808 1.03-.601 2.06-1.185 3.091-1.786 4.671-2.696 9.325-5.392 13.996-8.088.103-.069.206-.12.31-.19.05-.034.05-1.459 0-1.493-2.749-1.597-5.513-3.177-8.261-4.774-.567-.327-1.134-.653-1.683-.979-.292-.172-.24-.172-.532-.069-.567.206-1.117.635-1.632.945-.893.515-1.769 1.03-2.662 1.528a165.52 165.52 0 0 1-4.052 2.387c-.224.137.206 1.374 0 1.494 2.696-1.546 5.375-3.108 8.07-4.654.241-.137.361-.257.585-.223.429.069 1.03.584 1.39.807 1.7.98 3.4 1.958 5.101 2.954 1.22.704 2.456 1.408 3.675 2.112v-1.494l-18.29 10.562c-.12.068-.394.292-.531.292-.224 0-.636-.361-.808-.464-1.51-.876-3.022-1.752-4.55-2.628-3.83-2.215-7.66-4.43-11.49-6.628-2.369-1.374-4.756-2.748-7.126-4.122-1.906-1.1-3.898-2.027-4.843-4.156-.704-1.58-.515-3.297-.515-4.963V2.664.93c0 1.545.258 3.211 1.374 4.585 1.116 1.356 2.954 2.18 4.465 3.04 1.563.91 3.125 1.803 4.688 2.713l17.568 10.149c.412.24.842.48 1.254.721-.224-.137.206-1.374-.017-1.51z"/></svg></svg></svg></svg><svg width="11" height="18" xmlns="http://www.w3.org/2000/svg" xmlns:xlink="http://www.w3.org/1999/xlink" xmlns:svgjs="http://svgjs.com/svgjs" viewBox="188 46 11 18" x="188" y="46"><svg width="11" height="17" xmlns="http://www.w3.org/2000/svg" xmlns:xlink="http://www.w3.org/1999/xlink" xmlns:svgjs="http://svgjs.com/svgjs" viewBox="0 0.375 11 16.249" fill="#dd2127" x="188" y="46"><svg xmlns="http://www.w3.org/2000/svg" xmlns:xlink="http://www.w3.org/1999/xlink" width="11" height="17" viewBox="0.316 0.861 10.544 15.576"><path paint-order="stroke fill markers" fill-rule="evenodd" d="M7.769 6.202l-.515.292-6.938 4.018 7.47 4.31c.722.413 1.34.98 1.838 1.615a6.174 6.174 0 0 0 1.236-3.71V.862a6.181 6.181 0 0 1-3.091 5.34z"/></svg></svg><svg width="11" height="18" xmlns="http://www.w3.org/2000/svg" xmlns:xlink="http://www.w3.org/1999/xlink" xmlns:svgjs="http://svgjs.com/svgjs" viewBox="188 46 11 18" x="188" y="46"><svg width="11" height="18" xmlns="http://www.w3.org/2000/svg" xmlns:xlink="http://www.w3.org/1999/xlink" xmlns:svgjs="http://svgjs.com/svgjs" viewBox="0 0.235 11 17.531" fill="#d71c4f" x="188" y="46"><svg xmlns="http://www.w3.org/2000/svg" xmlns:xlink="http://www.w3.org/1999/xlink" width="11" height="18" viewBox="0.26 0.141 10.641 16.959"><path paint-order="stroke fill markers" fill-rule="evenodd" d="M7.77 5.446C5.278 6.888 2.788 8.314.298 9.756c-.052.035-.052 1.46 0 1.495 1.39.807 2.782 1.614 4.173 2.404 1.494.859 3.366 1.665 4.602 2.902.12.12.24.31.361.395.31.223.189.206.412-.137.223-.361.43-.739.584-1.134.309-.79.412-1.614.43-2.456v-1.373-6.114V.827c0-.086 0-.893-.018-.636-.034 2.215-1.22 4.139-3.074 5.255-.223.138.206 1.357 0 1.494 1.614-.979 2.748-2.576 3.023-4.465.034-.223.051-1.975.051-1.511v7.505c0 1.597.206 3.366-.154 4.928-.104.464-.275.91-.481 1.323-.103.189-.258.6-.43.72-.326.241-.137.241-.429-.085-.464-.55-1.03-.979-1.631-1.34L5.76 12.883C3.94 11.835 2.136 10.787.316 9.74v1.494c2.49-1.442 4.98-2.868 7.47-4.31.206-.103-.223-1.356-.017-1.477z"/></svg></svg></svg></svg></svg><svg width="59" height="34" xmlns="http://www.w3.org/2000/svg" xmlns:xlink="http://www.w3.org/1999/xlink" xmlns:svgjs="http://svgjs.com/svgjs" viewBox="140 25 59 34" x="140" y="25"><svg width="59" height="34" xmlns="http://www.w3.org/2000/svg" xmlns:xlink="http://www.w3.org/1999/xlink" xmlns:svgjs="http://svgjs.com/svgjs" viewBox="0 0.722 59 32.555" fill="#dd2127" x="140" y="25"><svg xmlns="http://www.w3.org/2000/svg" xmlns:xlink="http://www.w3.org/1999/xlink" width="59" height="34" viewBox="0.163 0.755 58.697 32.388"><path paint-order="stroke fill markers" fill-rule="evenodd" d="M58.86 21.277v11.867a6.166 6.166 0 0 0-3.074-5.341l-.515-.292-25.76-14.872L3.753 27.51l-.515-.292a6.144 6.144 0 0 1-3.074-5.34v-.602a6.165 6.165 0 0 1 3.074-5.34L29.529.754 55.82 15.936a6.223 6.223 0 0 1 3.04 5.341z"/></svg></svg><svg width="59" height="34" xmlns="http://www.w3.org/2000/svg" xmlns:xlink="http://www.w3.org/1999/xlink" xmlns:svgjs="http://svgjs.com/svgjs" viewBox="140 25 59 34" x="140" y="25"><svg width="59" height="34" xmlns="http://www.w3.org/2000/svg" xmlns:xlink="http://www.w3.org/1999/xlink" xmlns:svgjs="http://svgjs.com/svgjs" viewBox="0 0.061 59 33.878" fill="#d71c4f" x="140" y="25"><svg xmlns="http://www.w3.org/2000/svg" xmlns:xlink="http://www.w3.org/1999/xlink" width="59" height="34" viewBox="0 0 58.856 33.796"><path paint-order="stroke fill markers" fill-rule="evenodd" d="M58.843 21.277v11.489c0 1.082-.017-.928-.051-1.254a6.173 6.173 0 0 0-1.649-3.383c-1.116-1.168-2.902-1.958-4.293-2.765l-7.677-4.43c-5.014-2.885-10.011-5.788-15.026-8.673-.189-.12-.498-.378-.721-.36-.412.034-1.065.618-1.408.807-2.319 1.34-4.654 2.679-6.973 4.035-5.323 3.074-10.63 6.148-15.953 9.205-.344.19-.945.721-1.34.773-.343.034-1.15-.67-1.374-.859a6.188 6.188 0 0 1-2.043-3.16c-.601-2.215.652-4.602 2.541-5.838.395-.258.807-.481 1.22-.721l15.25-8.81c2.54-1.477 5.1-2.937 7.641-4.414.687-.395 1.391-.807 2.078-1.202.275-.154.292-.223.55-.154.55.137 1.167.67 1.648.961 1.03.601 2.078 1.202 3.109 1.803 2.868 1.649 5.735 3.315 8.603 4.963 4.242 2.456 8.518 4.843 12.725 7.35 1.872 1.117 3.074 3.057 3.109 5.256 0 .274.017-.241.017-.276v-1.013c-.052-2.266-1.133-4.258-3.091-5.444-.31-.188-.618-.36-.927-.532-1.941-1.116-3.864-2.232-5.805-3.348-5.29-3.057-10.596-6.114-15.885-9.17-.842-.482-1.683-.98-2.524-1.46-.258-.155-.825-.636-1.117-.653-.189 0-.498.257-.652.343-.704.412-1.426.825-2.13 1.237-5.203 3.005-10.39 5.993-15.593 8.999a1236.89 1236.89 0 0 1-6.405 3.691c-1.906 1.1-3.693 2.199-4.362 4.5-.412 1.425-.412 3.349-.172 4.808a6.097 6.097 0 0 0 1.546 3.16c.36.395.79.739 1.236 1.03.138.086.567.43.739.43.257-.017.738-.43.944-.55.79-.464 1.58-.91 2.37-1.374 5.306-3.056 10.613-6.13 15.92-9.187l5.718-3.297c.172-.103.6-.464.807-.464.24 0 .756.43.945.55 4.774 2.747 9.53 5.512 14.305 8.26 3.554 2.043 7.092 4.104 10.647 6.148 2.026 1.168 3.417 3.04 3.469 5.46 0 .258.017-.549.017-.635.034-3.932.034-7.882.017-11.832.017-.051.017-.738 0-.738v.738z"/></svg></svg></svg></svg><svg width="59" height="35" xmlns="http://www.w3.org/2000/svg" xmlns:xlink="http://www.w3.org/1999/xlink" xmlns:svgjs="http://svgjs.com/svgjs" viewBox="140 44 59 35" x="140" y="44"><svg width="11" height="18" xmlns="http://www.w3.org/2000/svg" xmlns:xlink="http://www.w3.org/1999/xlink" xmlns:svgjs="http://svgjs.com/svgjs" viewBox="140 61 11 18" x="140" y="61"><svg width="11" height="17" xmlns="http://www.w3.org/2000/svg" xmlns:xlink="http://www.w3.org/1999/xlink" xmlns:svgjs="http://svgjs.com/svgjs" viewBox="0 0.362 11 16.276" fill="#dd2127" x="140" y="62"><svg xmlns="http://www.w3.org/2000/svg" xmlns:xlink="http://www.w3.org/1999/xlink" width="11" height="17" viewBox="0.129 0.437 10.527 15.576"><path paint-order="stroke fill markers" fill-rule="evenodd" d="M1.365.437A6.174 6.174 0 0 0 .13 4.147v11.866a6.165 6.165 0 0 1 3.074-5.341l.515-.292 6.938-4.001L3.203 2.05A6.143 6.143 0 0 1 1.365.437z"/></svg></svg><svg width="11" height="18" xmlns="http://www.w3.org/2000/svg" xmlns:xlink="http://www.w3.org/1999/xlink" xmlns:svgjs="http://svgjs.com/svgjs" viewBox="140 61 11 18" x="140" y="61"><svg width="11" height="18" xmlns="http://www.w3.org/2000/svg" xmlns:xlink="http://www.w3.org/1999/xlink" xmlns:svgjs="http://svgjs.com/svgjs" viewBox="0 0.221 11 17.558" fill="#d71c4f" x="140" y="61"><svg xmlns="http://www.w3.org/2000/svg" xmlns:xlink="http://www.w3.org/1999/xlink" width="11" height="18" viewBox="0.05 0.698 10.661 17.017"><path paint-order="stroke fill markers" fill-rule="evenodd" d="M1.365.698C-.369 3.12.112 6.555.112 9.405v7.625c0 .086 0 .893.017.635.051-2.198 1.236-4.138 3.108-5.255.618-.378 1.254-.72 1.89-1.081 1.854-1.065 3.691-2.13 5.546-3.195.051-.034.051-1.46 0-1.494-1.46-.841-2.92-1.682-4.396-2.542-1.683-.978-3.675-1.854-4.912-3.4.24.293-.24 1.186 0 1.495 1.237 1.562 3.229 2.421 4.912 3.4 1.46.841 2.92 1.683 4.396 2.541V6.64c-1.511.876-3.04 1.752-4.55 2.628-1.512.876-3.384 1.683-4.535 3.022C.403 13.681.146 15.313.128 16.996v-1.58-6.818-2.92c0-1.253.516-2.472 1.237-3.486.24-.343-.223-1.184 0-1.494z"/></svg></svg></svg></svg><svg width="49" height="35" xmlns="http://www.w3.org/2000/svg" xmlns:xlink="http://www.w3.org/1999/xlink" xmlns:svgjs="http://svgjs.com/svgjs" viewBox="150 44 49 35" x="150" y="44"><svg width="49" height="33" xmlns="http://www.w3.org/2000/svg" xmlns:xlink="http://www.w3.org/1999/xlink" xmlns:svgjs="http://svgjs.com/svgjs" viewBox="0 0.045 49 32.911" fill="#dd2127" x="150" y="45"><svg xmlns="http://www.w3.org/2000/svg" xmlns:xlink="http://www.w3.org/1999/xlink" width="49" height="33" viewBox="0.673 0.642 48.171 32.354"><path paint-order="stroke fill markers" fill-rule="evenodd" d="M47.607 17.437a6.136 6.136 0 0 0-1.838-1.614l-7.453-4.31L19.495.641.673 11.512l10.27 5.925 8.552-4.929 8.552 4.929 10.27 5.925 6.937 4 .515.293a6.144 6.144 0 0 1 3.074 5.34V21.13a5.944 5.944 0 0 0-1.236-3.692z"/></svg></svg><svg width="49" height="35" xmlns="http://www.w3.org/2000/svg" xmlns:xlink="http://www.w3.org/1999/xlink" xmlns:svgjs="http://svgjs.com/svgjs" viewBox="150 44 49 35" x="150" y="44"><svg width="49" height="35" xmlns="http://www.w3.org/2000/svg" xmlns:xlink="http://www.w3.org/1999/xlink" xmlns:svgjs="http://svgjs.com/svgjs" viewBox="0 0.359 49 34.282" fill="#d71c4f" x="150" y="44"><svg xmlns="http://www.w3.org/2000/svg" xmlns:xlink="http://www.w3.org/1999/xlink" width="49" height="35" viewBox="0.617 0.886 48.304 33.795"><path paint-order="stroke fill markers" fill-rule="evenodd" d="M47.607 17.698c-1.34-1.682-3.607-2.644-5.427-3.692-1.305-.755-2.628-1.511-3.933-2.267-3.211-1.854-6.44-3.71-9.65-5.58-2.044-1.186-4.07-2.353-6.114-3.539-.705-.411-1.409-.806-2.113-1.219-.189-.12-.635-.498-.876-.515-.154 0-.446.24-.6.326-.619.36-1.254.722-1.872 1.082-1.975 1.134-3.95 2.284-5.925 3.418A5433.329 5433.329 0 0 0 .656 11.739c-.052.035-.052 1.46 0 1.494 1.494.859 2.988 1.718 4.465 2.576 1.116.653 2.232 1.289 3.348 1.94.704.413 1.46.98 2.233 1.289.36.137.43 0 .807-.223.962-.55 1.923-1.1 2.868-1.666 1.082-.618 2.164-1.254 3.246-1.872.395-.223.807-.464 1.202-.687.137-.086.446-.343.618-.36.326-.018.979.549 1.27.72 1.083.619 2.165 1.255 3.246 1.873 1.374.79 2.748 1.58 4.122 2.387 3.383 1.957 6.749 3.898 10.132 5.856 1.769 1.013 3.538 2.043 5.306 3.056.653.378 1.323.756 1.975 1.134 1.975 1.15 3.28 3.04 3.332 5.375 0 .258.017-.55.017-.635V26.37c.017-2.816.515-6.251-1.236-8.673.223.327-.24 1.151 0 1.494 1.734 2.405 1.236 5.427 1.236 8.21v6.611c-.017-.378.017-.807-.017-1.22-.189-2.284-1.563-3.984-3.486-5.1-.825-.48-1.649-.944-2.473-1.425-1.717-.996-3.452-1.992-5.17-2.988-3.966-2.302-7.916-4.585-11.866-6.87l-4.121-2.37c-.55-.309-1.082-.618-1.632-.944-.12-.069-.446-.343-.6-.343-.172 0-.533.309-.67.395-.55.326-1.117.652-1.666.961l-4.122 2.37c-.515.31-1.047.601-1.562.91-.12.07-.378.292-.516.292-.171 0-.498-.292-.652-.378-.515-.292-1.03-.583-1.546-.893-2.507-1.442-5.014-2.902-7.539-4.344-.189-.103-.36-.206-.55-.31v1.495c2.937-1.7 5.874-3.4 8.81-5.084 2.096-1.219 4.208-2.42 6.303-3.64.79-.447 1.563-.91 2.353-1.357.343-.206.841-.635 1.236-.721.172-.035.19 0 .395.12.532.292 1.048.6 1.58.91 1.872 1.082 3.744 2.164 5.633 3.246 3.64 2.095 7.264 4.19 10.905 6.302 1.184.687 2.387 1.374 3.572 2.061 1.116.653 2.25 1.288 3.365 1.94 1.048.602 2.01 1.203 2.782 2.164-.206-.308.275-1.184.018-1.494z"/></svg></svg></svg></svg></svg><svg width="59" height="34" xmlns="http://www.w3.org/2000/svg" xmlns:xlink="http://www.w3.org/1999/xlink" xmlns:svgjs="http://svgjs.com/svgjs" viewBox="140 66 59 34" x="140" y="66"><svg width="59" height="34" xmlns="http://www.w3.org/2000/svg" xmlns:xlink="http://www.w3.org/1999/xlink" xmlns:svgjs="http://svgjs.com/svgjs" viewBox="0 0.723 59 32.554" fill="#dd2127" x="140" y="66"><svg xmlns="http://www.w3.org/2000/svg" xmlns:xlink="http://www.w3.org/1999/xlink" width="59" height="34" viewBox="0.129 0.73 58.731 32.406"><path paint-order="stroke fill markers" fill-rule="evenodd" d="M58.86 12.013v.6a6.164 6.164 0 0 1-3.074 5.341L29.494 33.136 3.203 17.937a6.144 6.144 0 0 1-3.074-5.34V.73a6.165 6.165 0 0 0 3.074 5.341l.515.292 25.76 14.872L55.236 6.363l.515.292a6.21 6.21 0 0 1 3.108 5.358z"/></svg></svg><svg width="59" height="34" xmlns="http://www.w3.org/2000/svg" xmlns:xlink="http://www.w3.org/1999/xlink" xmlns:svgjs="http://svgjs.com/svgjs" viewBox="140 66 59 34" x="140" y="66"><svg width="59" height="34" xmlns="http://www.w3.org/2000/svg" xmlns:xlink="http://www.w3.org/1999/xlink" xmlns:svgjs="http://svgjs.com/svgjs" viewBox="0 0.069 59 33.863" fill="#d71c4f" x="140" y="66"><svg xmlns="http://www.w3.org/2000/svg" xmlns:xlink="http://www.w3.org/1999/xlink" width="59" height="34" viewBox="0.083 0.01 58.795 33.745"><path paint-order="stroke fill markers" fill-rule="evenodd" d="M58.843 12.013c0 2.13-1.27 4.104-3.074 5.186-.36.223-.738.43-1.116.635-2.181 1.254-4.362 2.525-6.543 3.778-5.478 3.16-10.974 6.337-16.452 9.497-.635.36-1.253.756-1.906 1.1-.31.154-.223.154-.515.016-.636-.291-1.237-.72-1.838-1.064-1.082-.619-2.163-1.254-3.245-1.872-5.685-3.28-11.369-6.56-17.07-9.858-1.288-.738-2.593-1.477-3.881-2.232-1.666-.996-2.885-2.765-3.074-4.688-.103-1.065 0-2.198 0-3.263 0-2.8.017-5.598 0-8.415V.747c.017.378-.017.808.017 1.202a6.54 6.54 0 0 0 .378 1.718 6.195 6.195 0 0 0 2.352 2.936c.464.31.962.567 1.426.842 4.963 2.868 9.909 5.718 14.872 8.586 2.593 1.494 5.169 2.988 7.762 4.482.704.413 1.425.825 2.13 1.22.291.171.291.223.566.154.567-.137 1.202-.687 1.7-.979 1.065-.618 2.112-1.219 3.177-1.837 2.902-1.666 5.787-3.349 8.69-5.015a2118.45 2118.45 0 0 1 8.363-4.825l2.679-1.546c.223-.137.738-.584 1.013-.584.172 0 .584.344.738.43.533.326.996.738 1.409 1.219.927 1.082 1.425 2.456 1.46 3.881 0 .275.016-.24.016-.275v-1.013c-.051-2.267-1.133-4.276-3.108-5.444-.567-.343-.532-.275-1.065.034-1.751 1.014-3.503 2.027-5.254 3.023-5.273 3.04-10.545 6.08-15.817 9.136l-2.679 1.546c-.36.206-.944.72-1.356.79-.207.034-.292-.07-.498-.19-.636-.36-1.271-.738-1.89-1.098-5.083-2.937-10.149-5.857-15.232-8.793C9.814 9.094 7.65 7.84 5.47 6.587c-1.443-.825-3.074-1.58-4.088-2.937A6.15 6.15 0 0 1 .163.06c0-.257-.017.55-.017.636v11.866c0 2.525.841 4.74 3.091 6.08 4.671 2.799 9.445 5.46 14.168 8.191 2.988 1.717 5.976 3.452 8.947 5.17.858.497 1.734.995 2.593 1.493.292.172.412.31.704.24.653-.171 1.374-.79 1.94-1.116 1.203-.704 2.405-1.39 3.624-2.095a1832.17 1832.17 0 0 1 9.806-5.65c2.833-1.648 5.684-3.28 8.518-4.928 2.284-1.322 4.62-2.508 5.22-5.393.155-.807.103-1.682.086-2.541.017-.052.017-.739 0-.739v.739z"/></svg></svg></svg></svg><svg width="39" height="10" xmlns="http://www.w3.org/2000/svg" xmlns:xlink="http://www.w3.org/1999/xlink" xmlns:svgjs="http://svgjs.com/svgjs" viewBox="0 0.787 39 8.426" fill="#301420" opacity=".8" x="149" y="96"><svg xmlns="http://www.w3.org/2000/svg" width="39" height="10" viewBox="0.419 0.989 37.678 8.14"><path paint-order="stroke fill markers" fill-rule="evenodd" d="M19.258 9.129C8.84 9.129.419 7.309.419 5.059S8.84.989 19.258.989s18.839 1.82 18.839 4.07-8.421 4.07-18.839 4.07z"/></svg></svg></svg>